<svg width="24" height="24" viewBox="0 0 24 24" fill="none" xmlns="http://www.w3.org/2000/svg">
    <path d="M15 7C15 6.40666 14.824 5.82664 14.4944 5.33329C14.1647 4.83994 13.6962 4.45543 13.148 4.22836C12.5999 4.0013 11.9967 3.94189 11.4147 4.05765C10.8328 4.1734 10.2982 4.45912 9.87866 4.87868C9.45911 5.29824 9.17338 5.83279 9.05763 6.41473C8.94187 6.99667 9.00128 7.59987 9.22834 8.14805C9.45541 8.69623 9.83992 9.16477 10.3333 9.49441C10.8266 9.82405 11.4066 10 12 10V12M12 12L3.37598 17.488C3.22617 17.5832 3.11131 17.7245 3.04867 17.8906C2.98602 18.0567 2.97897 18.2387 3.02857 18.4091C3.07817 18.5796 3.18175 18.7293 3.32374 18.8359C3.46573 18.9424 3.63846 19 3.81598 19H20.184C20.3615 19 20.5342 18.9424 20.6762 18.8359C20.8182 18.7293 20.9218 18.5796 20.9714 18.4091C21.021 18.2387 21.0139 18.0567 20.9513 17.8906C20.8887 17.7245 20.7738 17.5832 20.624 17.488L12 12Z" stroke="#EEEEEE" stroke-width="2" stroke-linecap="round" stroke-linejoin="round"/>
</svg>
